<svg width="200" height="56" viewBox="0 0 200 56" fill="none" xmlns="http://www.w3.org/2000/svg">
<path d="M1.18008 28L18.0974 1H181.903L198.82 28L181.903 55H18.0974L1.18008 28Z" stroke="#38CF3A" stroke-width="2"/>
<path d="M20.4912 5L6 28L20.4912 51M179 5L194 28L180 50" stroke="#38CF3A" stroke-width="2"/>
<path d="M35.4203 33H34.5383C34.3797 33 34.3003 32.9207 34.3003 32.762V24.236C34.3003 24.0773 34.3797 23.998 34.5383 23.998H37.8703C38.5517 23.998 39.0837 24.1893 39.4663 24.572C39.849 24.9453 40.0403 25.4773 40.0403 26.168V27.624C40.0403 28.3053 39.849 28.8373 39.4663 29.22C39.0837 29.6027 38.5517 29.794 37.8703 29.794H35.8263C35.7143 29.794 35.6583 29.8407 35.6583 29.934V32.762C35.6583 32.9207 35.579 33 35.4203 33ZM35.8123 28.59H37.6743C38.337 28.59 38.6683 28.2447 38.6683 27.554V26.224C38.6683 25.5333 38.337 25.188 37.6743 25.188H35.8123C35.7097 25.188 35.6583 25.2347 35.6583 25.328V28.45C35.6583 28.5433 35.7097 28.59 35.8123 28.59ZM42.8168 33H41.9348C41.7761 33 41.6968 32.9207 41.6968 32.762V24.236C41.6968 24.0773 41.7761 23.998 41.9348 23.998H45.2108C45.8921 23.998 46.4241 24.194 46.8068 24.586C47.1988 24.9687 47.3948 25.5007 47.3948 26.182V27.358C47.3948 28.4313 46.9515 29.108 46.0648 29.388V29.444L47.6188 32.72C47.7215 32.9067 47.6608 33 47.4368 33H46.5688C46.3448 33 46.2001 32.9207 46.1348 32.762L44.6368 29.542H43.2228C43.1108 29.542 43.0548 29.5887 43.0548 29.682V32.762C43.0548 32.9207 42.9755 33 42.8168 33ZM43.2088 28.422H44.9868C45.6775 28.422 46.0228 28.0813 46.0228 27.4V26.224C46.0228 25.5333 45.6775 25.188 44.9868 25.188H43.2088C43.1061 25.188 43.0548 25.2347 43.0548 25.328V28.282C43.0548 28.3753 43.1061 28.422 43.2088 28.422ZM51.5107 31.81H52.7287C53.41 31.81 53.7507 31.4647 53.7507 30.774V26.224C53.7507 25.5333 53.41 25.188 52.7287 25.188H51.5107C50.8387 25.188 50.5027 25.5333 50.5027 26.224V30.774C50.5027 31.4647 50.8387 31.81 51.5107 31.81ZM52.9387 33H51.3147C50.624 33 50.0874 32.8087 49.7047 32.426C49.3314 32.0433 49.1447 31.5113 49.1447 30.83V26.168C49.1447 25.4773 49.3314 24.9453 49.7047 24.572C50.0874 24.1893 50.624 23.998 51.3147 23.998H52.9387C53.6294 23.998 54.166 24.1893 54.5487 24.572C54.9314 24.9453 55.1227 25.4773 55.1227 26.168V30.83C55.1227 31.5113 54.9314 32.0433 54.5487 32.426C54.166 32.8087 53.6294 33 52.9387 33ZM58.5213 31.81H60.4953C61.1673 31.81 61.5033 31.4647 61.5033 30.774V26.224C61.5033 25.5333 61.1673 25.188 60.4953 25.188H58.5213C58.4186 25.188 58.3673 25.2347 58.3673 25.328V31.656C58.3673 31.7587 58.4186 31.81 58.5213 31.81ZM57.0093 32.762V24.236C57.0093 24.0773 57.0886 23.998 57.2473 23.998H60.6913C61.3726 23.998 61.9046 24.1893 62.2873 24.572C62.6793 24.9453 62.8753 25.4773 62.8753 26.168V30.83C62.8753 31.5113 62.6793 32.0433 62.2873 32.426C61.9046 32.8087 61.3726 33 60.6913 33H57.2473C57.0886 33 57.0093 32.9207 57.0093 32.762ZM69.4789 23.998H70.3609C70.5289 23.998 70.6129 24.0727 70.6129 24.222V30.83C70.6129 31.5113 70.4169 32.0433 70.0249 32.426C69.6423 32.8087 69.1103 33 68.4289 33H66.8749C66.1936 33 65.6616 32.8087 65.2789 32.426C64.8963 32.0433 64.7049 31.5113 64.7049 30.83V24.236C64.7049 24.0773 64.7843 23.998 64.9429 23.998H65.8249C65.9836 23.998 66.0629 24.0773 66.0629 24.236V30.774C66.0629 31.4647 66.3989 31.81 67.0709 31.81H68.2189C68.9003 31.81 69.2409 31.4647 69.2409 30.774V24.236C69.2409 24.0773 69.3203 23.998 69.4789 23.998ZM76.2219 33H74.5979C73.9072 33 73.3706 32.8087 72.9879 32.426C72.6146 32.0433 72.4279 31.5113 72.4279 30.83V26.168C72.4279 25.4773 72.6146 24.9453 72.9879 24.572C73.3706 24.1893 73.9072 23.998 74.5979 23.998H76.2219C76.9032 23.998 77.4352 24.1893 77.8179 24.572C78.2006 24.9453 78.3919 25.4773 78.3919 26.168V26.84C78.3919 27.008 78.3079 27.092 78.1399 27.092H77.2579C77.0992 27.092 77.0199 27.008 77.0199 26.84V26.224C77.0199 25.5333 76.6839 25.188 76.0119 25.188H74.7939C74.1219 25.188 73.7859 25.5333 73.7859 26.224V30.774C73.7859 31.4647 74.1219 31.81 74.7939 31.81H76.0119C76.6839 31.81 77.0199 31.4647 77.0199 30.774V30.158C77.0199 29.99 77.0992 29.906 77.2579 29.906H78.1399C78.3079 29.906 78.3919 29.99 78.3919 30.158V30.83C78.3919 31.5113 78.2006 32.0433 77.8179 32.426C77.4352 32.8087 76.9032 33 76.2219 33ZM82.5924 33H81.7104C81.5424 33 81.4584 32.9207 81.4584 32.762V25.328C81.4584 25.2347 81.4118 25.188 81.3184 25.188H79.5544C79.3864 25.188 79.3024 25.1087 79.3024 24.95V24.236C79.3024 24.0773 79.3864 23.998 79.5544 23.998H84.7484C84.9164 23.998 85.0004 24.0773 85.0004 24.236V24.95C85.0004 25.1087 84.9164 25.188 84.7484 25.188H82.9844C82.8818 25.188 82.8304 25.2347 82.8304 25.328V32.762C82.8304 32.9207 82.7511 33 82.5924 33ZM86.0308 30.816V30.452C86.0308 30.2933 86.1101 30.214 86.2688 30.214H87.1648C87.3234 30.214 87.4028 30.2933 87.4028 30.452V30.704C87.4028 31.096 87.4868 31.3807 87.6548 31.558C87.8321 31.726 88.1214 31.81 88.5228 31.81H89.4888C89.8901 31.81 90.1794 31.7213 90.3568 31.544C90.5341 31.3573 90.6228 31.0587 90.6228 30.648V30.326C90.6228 30.0273 90.5061 29.794 90.2728 29.626C90.0488 29.4487 89.7688 29.3367 89.4328 29.29C89.0968 29.234 88.7281 29.1593 88.3268 29.066C87.9254 28.9727 87.5568 28.8653 87.2208 28.744C86.8848 28.6227 86.6001 28.394 86.3668 28.058C86.1428 27.722 86.0308 27.2927 86.0308 26.77V26.182C86.0308 25.5007 86.2221 24.9687 86.6048 24.586C86.9968 24.194 87.5334 23.998 88.2148 23.998H89.6988C90.3894 23.998 90.9261 24.194 91.3088 24.586C91.7008 24.9687 91.8968 25.5007 91.8968 26.182V26.49C91.8968 26.6487 91.8174 26.728 91.6588 26.728H90.7628C90.6041 26.728 90.5248 26.6487 90.5248 26.49V26.308C90.5248 25.9067 90.4361 25.622 90.2588 25.454C90.0908 25.2767 89.8061 25.188 89.4048 25.188H88.5228C88.1214 25.188 87.8321 25.2813 87.6548 25.468C87.4868 25.6453 87.4028 25.9533 87.4028 26.392V26.826C87.4028 27.246 87.7061 27.5307 88.3128 27.68C88.5834 27.7453 88.8774 27.8013 89.1948 27.848C89.5214 27.8947 89.8481 27.9647 90.1748 28.058C90.5014 28.1513 90.8001 28.2773 91.0708 28.436C91.3414 28.5853 91.5608 28.8187 91.7288 29.136C91.8968 29.444 91.9808 29.822 91.9808 30.27V30.816C91.9808 31.4973 91.7848 32.034 91.3928 32.426C91.0101 32.8087 90.4781 33 89.7968 33H88.2288C87.5474 33 87.0108 32.8087 86.6188 32.426C86.2268 32.034 86.0308 31.4973 86.0308 30.816ZM99.2626 31.796H100.033C100.555 31.796 100.849 31.558 100.915 31.082L99.0246 28.884C98.4833 28.912 98.2126 29.276 98.2126 29.976V30.774C98.2126 31.4553 98.5626 31.796 99.2626 31.796ZM100.033 33H99.0666C98.3853 33 97.8533 32.8133 97.4706 32.44C97.088 32.0667 96.8966 31.5393 96.8966 30.858V29.892C96.8966 29.4253 97.018 29.0147 97.2606 28.66C97.5033 28.3053 97.858 28.1093 98.3246 28.072C97.942 27.5773 97.7506 27.0313 97.7506 26.434V26.14C97.7506 25.468 97.9513 24.9453 98.3526 24.572C98.7633 24.1893 99.314 23.998 100.005 23.998H100.425C101.106 23.998 101.638 24.1847 102.021 24.558C102.403 24.9313 102.595 25.4587 102.595 26.14V26.686C102.595 26.854 102.515 26.938 102.357 26.938H101.475C101.316 26.938 101.237 26.854 101.237 26.686V26.168C101.237 25.496 100.924 25.16 100.299 25.16H100.131C99.4773 25.16 99.1506 25.496 99.1506 26.168V26.462C99.1506 26.882 99.356 27.3207 99.7666 27.778L100.509 28.632H103.715C103.873 28.632 103.953 28.716 103.953 28.884V29.598C103.953 29.7567 103.873 29.836 103.715 29.836H101.517L104.023 32.804C104.06 32.8413 104.069 32.8833 104.051 32.93C104.041 32.9767 104.009 33 103.953 33H102.833C102.646 33 102.511 32.944 102.427 32.832L101.741 32.02C101.526 32.6733 100.957 33 100.033 33ZM108.917 30.816V30.452C108.917 30.2933 108.997 30.214 109.155 30.214H110.051C110.21 30.214 110.289 30.2933 110.289 30.452V30.704C110.289 31.096 110.373 31.3807 110.541 31.558C110.719 31.726 111.008 31.81 111.409 31.81H112.375C112.777 31.81 113.066 31.7213 113.243 31.544C113.421 31.3573 113.509 31.0587 113.509 30.648V30.326C113.509 30.0273 113.393 29.794 113.159 29.626C112.935 29.4487 112.655 29.3367 112.319 29.29C111.983 29.234 111.615 29.1593 111.213 29.066C110.812 28.9727 110.443 28.8653 110.107 28.744C109.771 28.6227 109.487 28.394 109.253 28.058C109.029 27.722 108.917 27.2927 108.917 26.77V26.182C108.917 25.5007 109.109 24.9687 109.491 24.586C109.883 24.194 110.42 23.998 111.101 23.998H112.585C113.276 23.998 113.813 24.194 114.195 24.586C114.587 24.9687 114.783 25.5007 114.783 26.182V26.49C114.783 26.6487 114.704 26.728 114.545 26.728H113.649C113.491 26.728 113.411 26.6487 113.411 26.49V26.308C113.411 25.9067 113.323 25.622 113.145 25.454C112.977 25.2767 112.693 25.188 112.291 25.188H111.409C111.008 25.188 110.719 25.2813 110.541 25.468C110.373 25.6453 110.289 25.9533 110.289 26.392V26.826C110.289 27.246 110.593 27.5307 111.199 27.68C111.47 27.7453 111.764 27.8013 112.081 27.848C112.408 27.8947 112.735 27.9647 113.061 28.058C113.388 28.1513 113.687 28.2773 113.957 28.436C114.228 28.5853 114.447 28.8187 114.615 29.136C114.783 29.444 114.867 29.822 114.867 30.27V30.816C114.867 31.4973 114.671 32.034 114.279 32.426C113.897 32.8087 113.365 33 112.683 33H111.115C110.434 33 109.897 32.8087 109.505 32.426C109.113 32.034 108.917 31.4973 108.917 30.816ZM118.981 31.81H120.199C120.881 31.81 121.221 31.4647 121.221 30.774V26.224C121.221 25.5333 120.881 25.188 120.199 25.188H118.981C118.309 25.188 117.973 25.5333 117.973 26.224V30.774C117.973 31.4647 118.309 31.81 118.981 31.81ZM120.409 33H118.785C118.095 33 117.558 32.8087 117.175 32.426C116.802 32.0433 116.615 31.5113 116.615 30.83V26.168C116.615 25.4773 116.802 24.9453 117.175 24.572C117.558 24.1893 118.095 23.998 118.785 23.998H120.409C121.1 23.998 121.637 24.1893 122.019 24.572C122.402 24.9453 122.593 25.4773 122.593 26.168V30.83C122.593 31.5113 122.402 32.0433 122.019 32.426C121.637 32.8087 121.1 33 120.409 33ZM129.254 33H124.718C124.559 33 124.48 32.9207 124.48 32.762V24.236C124.48 24.0773 124.559 23.998 124.718 23.998H125.6C125.759 23.998 125.838 24.0773 125.838 24.236V31.642C125.838 31.7353 125.894 31.782 126.006 31.782H129.254C129.413 31.782 129.492 31.866 129.492 32.034V32.762C129.492 32.9207 129.413 33 129.254 33ZM135.487 23.998H136.369C136.537 23.998 136.621 24.0727 136.621 24.222V30.83C136.621 31.5113 136.425 32.0433 136.033 32.426C135.65 32.8087 135.118 33 134.437 33H132.883C132.201 33 131.669 32.8087 131.287 32.426C130.904 32.0433 130.713 31.5113 130.713 30.83V24.236C130.713 24.0773 130.792 23.998 130.951 23.998H131.833C131.991 23.998 132.071 24.0773 132.071 24.236V30.774C132.071 31.4647 132.407 31.81 133.079 31.81H134.227C134.908 31.81 135.249 31.4647 135.249 30.774V24.236C135.249 24.0773 135.328 23.998 135.487 23.998ZM141.04 33H140.158C139.99 33 139.906 32.9207 139.906 32.762V25.328C139.906 25.2347 139.859 25.188 139.766 25.188H138.002C137.834 25.188 137.75 25.1087 137.75 24.95V24.236C137.75 24.0773 137.834 23.998 138.002 23.998H143.196C143.364 23.998 143.448 24.0773 143.448 24.236V24.95C143.448 25.1087 143.364 25.188 143.196 25.188H141.432C141.329 25.188 141.278 25.2347 141.278 25.328V32.762C141.278 32.9207 141.198 33 141.04 33ZM146.074 24.236V32.762C146.074 32.9207 145.995 33 145.836 33H144.954C144.795 33 144.716 32.9207 144.716 32.762V24.236C144.716 24.0773 144.795 23.998 144.954 23.998H145.836C145.995 23.998 146.074 24.0773 146.074 24.236ZM150.413 31.81H151.631C152.312 31.81 152.653 31.4647 152.653 30.774V26.224C152.653 25.5333 152.312 25.188 151.631 25.188H150.413C149.741 25.188 149.405 25.5333 149.405 26.224V30.774C149.405 31.4647 149.741 31.81 150.413 31.81ZM151.841 33H150.217C149.526 33 148.99 32.8087 148.607 32.426C148.234 32.0433 148.047 31.5113 148.047 30.83V26.168C148.047 25.4773 148.234 24.9453 148.607 24.572C148.99 24.1893 149.526 23.998 150.217 23.998H151.841C152.532 23.998 153.068 24.1893 153.451 24.572C153.834 24.9453 154.025 25.4773 154.025 26.168V30.83C154.025 31.5113 153.834 32.0433 153.451 32.426C153.068 32.8087 152.532 33 151.841 33ZM157.018 33H156.15C155.991 33 155.912 32.9207 155.912 32.762V24.236C155.912 24.0773 155.991 23.998 156.15 23.998H156.934C157.083 23.998 157.186 24.0493 157.242 24.152L160.63 30.242H160.686V24.236C160.686 24.0773 160.765 23.998 160.924 23.998H161.792C161.95 23.998 162.03 24.0773 162.03 24.236V32.762C162.03 32.9207 161.95 33 161.792 33H161.036C160.886 33 160.765 32.9253 160.672 32.776L157.312 26.756H157.256V32.762C157.256 32.9207 157.176 33 157.018 33ZM163.906 30.816V30.452C163.906 30.2933 163.985 30.214 164.144 30.214H165.04C165.198 30.214 165.278 30.2933 165.278 30.452V30.704C165.278 31.096 165.362 31.3807 165.53 31.558C165.707 31.726 165.996 31.81 166.398 31.81H167.364C167.765 31.81 168.054 31.7213 168.232 31.544C168.409 31.3573 168.498 31.0587 168.498 30.648V30.326C168.498 30.0273 168.381 29.794 168.148 29.626C167.924 29.4487 167.644 29.3367 167.308 29.29C166.972 29.234 166.603 29.1593 166.202 29.066C165.8 28.9727 165.432 28.8653 165.096 28.744C164.76 28.6227 164.475 28.394 164.242 28.058C164.018 27.722 163.906 27.2927 163.906 26.77V26.182C163.906 25.5007 164.097 24.9687 164.48 24.586C164.872 24.194 165.408 23.998 166.09 23.998H167.574C168.264 23.998 168.801 24.194 169.184 24.586C169.576 24.9687 169.772 25.5007 169.772 26.182V26.49C169.772 26.6487 169.692 26.728 169.534 26.728H168.638C168.479 26.728 168.4 26.6487 168.4 26.49V26.308C168.4 25.9067 168.311 25.622 168.134 25.454C167.966 25.2767 167.681 25.188 167.28 25.188H166.398C165.996 25.188 165.707 25.2813 165.53 25.468C165.362 25.6453 165.278 25.9533 165.278 26.392V26.826C165.278 27.246 165.581 27.5307 166.188 27.68C166.458 27.7453 166.752 27.8013 167.07 27.848C167.396 27.8947 167.723 27.9647 168.05 28.058C168.376 28.1513 168.675 28.2773 168.946 28.436C169.216 28.5853 169.436 28.8187 169.604 29.136C169.772 29.444 169.856 29.822 169.856 30.27V30.816C169.856 31.4973 169.66 32.034 169.268 32.426C168.885 32.8087 168.353 33 167.672 33H166.104C165.422 33 164.886 32.8087 164.494 32.426C164.102 32.034 163.906 31.4973 163.906 30.816Z" fill="white"/>
</svg>
