<svg width="200" height="56" viewBox="0 0 200 56" fill="none" xmlns="http://www.w3.org/2000/svg">
<path d="M1.18008 28L18.0974 1H181.903L198.82 28L181.903 55H18.0974L1.18008 28Z" stroke="#38CF3A" stroke-width="2"/>
<path d="M20.4912 5L6 28L20.4912 51M179 5L194 28L180 50" stroke="#38CF3A" stroke-width="2"/>
<path d="M55.686 28.704V28.424C55.686 28.228 55.784 28.13 55.98 28.13H57.17C57.366 28.13 57.464 28.228 57.464 28.424V28.536C57.464 28.8907 57.534 29.1333 57.674 29.264C57.814 29.3947 58.0707 29.46 58.444 29.46H59.102C59.466 29.46 59.718 29.39 59.858 29.25C60.0073 29.11 60.082 28.8487 60.082 28.466V28.298C60.082 28.0273 59.97 27.822 59.746 27.682C59.5313 27.5327 59.2607 27.444 58.934 27.416C58.6073 27.388 58.2527 27.3367 57.87 27.262C57.4967 27.178 57.1467 27.0753 56.82 26.954C56.4933 26.8233 56.218 26.576 55.994 26.212C55.7793 25.8387 55.672 25.3627 55.672 24.784V24.294C55.672 23.566 55.8773 23.0013 56.288 22.6C56.6987 22.1987 57.268 21.998 57.996 21.998H59.396C60.1333 21.998 60.7073 22.1987 61.118 22.6C61.5287 23.0013 61.734 23.566 61.734 24.294V24.56C61.734 24.756 61.636 24.854 61.44 24.854H60.25C60.054 24.854 59.956 24.756 59.956 24.56V24.476C59.956 24.112 59.886 23.8647 59.746 23.734C59.606 23.6033 59.3493 23.538 58.976 23.538H58.43C58.0473 23.538 57.786 23.6127 57.646 23.762C57.5153 23.902 57.45 24.182 57.45 24.602V24.868C57.45 25.3067 57.8327 25.5587 58.598 25.624C59.3913 25.6893 60.096 25.848 60.712 26.1C61.0387 26.24 61.3093 26.492 61.524 26.856C61.748 27.2107 61.86 27.668 61.86 28.228V28.704C61.86 29.432 61.6547 29.9967 61.244 30.398C60.8333 30.7993 60.264 31 59.536 31H58.01C57.282 31 56.7127 30.7993 56.302 30.398C55.8913 29.9967 55.686 29.432 55.686 28.704ZM68.3289 31H63.7509C63.5549 31 63.4569 30.902 63.4569 30.706V22.292C63.4569 22.096 63.5549 21.998 63.7509 21.998H68.3289C68.5155 21.998 68.6089 22.096 68.6089 22.292V23.244C68.6089 23.44 68.5155 23.538 68.3289 23.538H65.4029C65.2909 23.538 65.2349 23.5893 65.2349 23.692V25.512C65.2349 25.6147 65.2909 25.666 65.4029 25.666H67.7969C67.9929 25.666 68.0909 25.764 68.0909 25.96V26.912C68.0909 27.108 67.9929 27.206 67.7969 27.206H65.4029C65.2909 27.206 65.2349 27.2573 65.2349 27.36V29.306C65.2349 29.4087 65.2909 29.46 65.4029 29.46H68.3289C68.5155 29.46 68.6089 29.558 68.6089 29.754V30.706C68.6089 30.902 68.5155 31 68.3289 31ZM75.0281 31H70.4501C70.2541 31 70.1561 30.902 70.1561 30.706V22.292C70.1561 22.096 70.2541 21.998 70.4501 21.998H75.0281C75.2148 21.998 75.3081 22.096 75.3081 22.292V23.244C75.3081 23.44 75.2148 23.538 75.0281 23.538H72.1021C71.9901 23.538 71.9341 23.5893 71.9341 23.692V25.512C71.9341 25.6147 71.9901 25.666 72.1021 25.666H74.4961C74.6921 25.666 74.7901 25.764 74.7901 25.96V26.912C74.7901 27.108 74.6921 27.206 74.4961 27.206H72.1021C71.9901 27.206 71.9341 27.2573 71.9341 27.36V29.306C71.9341 29.4087 71.9901 29.46 72.1021 29.46H75.0281C75.2148 29.46 75.3081 29.558 75.3081 29.754V30.706C75.3081 30.902 75.2148 31 75.0281 31ZM80.8695 31H79.5255C79.3575 31 79.3015 30.902 79.3575 30.706L81.5695 22.292C81.6348 22.096 81.7748 21.998 81.9895 21.998H83.8515C84.0848 21.998 84.2248 22.096 84.2715 22.292L86.4835 30.706C86.5395 30.902 86.4835 31 86.3155 31H84.9715C84.8688 31 84.7988 30.9813 84.7615 30.944C84.7242 30.8973 84.6962 30.818 84.6775 30.706L84.2855 29.166H81.5555L81.1635 30.706C81.1448 30.818 81.1122 30.8973 81.0655 30.944C81.0282 30.9813 80.9628 31 80.8695 31ZM82.8995 23.692L81.8915 27.738H83.9635L82.9555 23.692H82.8995ZM92.6245 31H88.0185C87.8225 31 87.7245 30.902 87.7245 30.706V22.292C87.7245 22.096 87.8225 21.998 88.0185 21.998H89.2085C89.4045 21.998 89.5025 22.096 89.5025 22.292V29.292C89.5025 29.3947 89.5585 29.446 89.6705 29.446H92.6245C92.8111 29.446 92.9045 29.5487 92.9045 29.754V30.706C92.9045 30.902 92.8111 31 92.6245 31ZM98.9135 31H94.3075C94.1115 31 94.0135 30.902 94.0135 30.706V22.292C94.0135 22.096 94.1115 21.998 94.3075 21.998H95.4975C95.6935 21.998 95.7915 22.096 95.7915 22.292V29.292C95.7915 29.3947 95.8475 29.446 95.9595 29.446H98.9135C99.1002 29.446 99.1935 29.5487 99.1935 29.754V30.706C99.1935 30.902 99.1002 31 98.9135 31ZM107.033 31H105.549C104.811 31 104.242 30.804 103.841 30.412C103.439 30.02 103.239 29.4553 103.239 28.718V24.28C103.239 23.5427 103.439 22.978 103.841 22.586C104.242 22.194 104.811 21.998 105.549 21.998H107.033C107.761 21.998 108.325 22.1987 108.727 22.6C109.128 22.992 109.329 23.552 109.329 24.28V24.7C109.329 24.9053 109.231 25.008 109.035 25.008H107.845C107.649 25.008 107.551 24.9053 107.551 24.7V24.364C107.551 24.0653 107.49 23.8553 107.369 23.734C107.247 23.6033 107.037 23.538 106.739 23.538H105.829C105.539 23.538 105.329 23.6033 105.199 23.734C105.077 23.8553 105.017 24.0653 105.017 24.364V28.634C105.017 28.9327 105.077 29.1473 105.199 29.278C105.329 29.3993 105.539 29.46 105.829 29.46H106.739C107.037 29.46 107.247 29.3993 107.369 29.278C107.49 29.1473 107.551 28.9327 107.551 28.634V27.752C107.551 27.6493 107.499 27.598 107.397 27.598H106.557C106.361 27.598 106.263 27.5 106.263 27.304V26.352C106.263 26.156 106.361 26.058 106.557 26.058H109.007C109.221 26.058 109.329 26.1653 109.329 26.38V28.718C109.329 29.446 109.128 30.0107 108.727 30.412C108.325 30.804 107.761 31 107.033 31ZM111.946 31H110.602C110.434 31 110.378 30.902 110.434 30.706L112.646 22.292C112.711 22.096 112.851 21.998 113.066 21.998H114.928C115.161 21.998 115.301 22.096 115.348 22.292L117.56 30.706C117.616 30.902 117.56 31 117.392 31H116.048C115.945 31 115.875 30.9813 115.838 30.944C115.8 30.8973 115.772 30.818 115.754 30.706L115.362 29.166H112.632L112.24 30.706C112.221 30.818 112.188 30.8973 112.142 30.944C112.104 30.9813 112.039 31 111.946 31ZM113.976 23.692L112.968 27.738H115.04L114.032 23.692H113.976ZM124.779 21.998H126.851C127.047 21.998 127.145 22.096 127.145 22.292V30.706C127.145 30.902 127.047 31 126.851 31H125.703C125.507 31 125.409 30.902 125.409 30.706V24.07H125.353L123.925 28.76C123.869 28.9467 123.752 29.04 123.575 29.04H122.399C122.221 29.04 122.105 28.9467 122.049 28.76L120.593 24.056H120.537V30.706C120.537 30.818 120.518 30.8973 120.481 30.944C120.443 30.9813 120.364 31 120.243 31H119.095C118.899 31 118.801 30.902 118.801 30.706V22.292C118.801 22.096 118.899 21.998 119.095 21.998H121.181C121.311 21.998 121.4 22.0633 121.447 22.194L122.931 27.136H123.015L124.513 22.194C124.541 22.0633 124.629 21.998 124.779 21.998ZM133.831 31H129.253C129.057 31 128.959 30.902 128.959 30.706V22.292C128.959 22.096 129.057 21.998 129.253 21.998H133.831C134.017 21.998 134.111 22.096 134.111 22.292V23.244C134.111 23.44 134.017 23.538 133.831 23.538H130.905C130.793 23.538 130.737 23.5893 130.737 23.692V25.512C130.737 25.6147 130.793 25.666 130.905 25.666H133.299C133.495 25.666 133.593 25.764 133.593 25.96V26.912C133.593 27.108 133.495 27.206 133.299 27.206H130.905C130.793 27.206 130.737 27.2573 130.737 27.36V29.306C130.737 29.4087 130.793 29.46 130.905 29.46H133.831C134.017 29.46 134.111 29.558 134.111 29.754V30.706C134.111 30.902 134.017 31 133.831 31ZM135.434 28.704V28.424C135.434 28.228 135.532 28.13 135.728 28.13H136.918C137.114 28.13 137.212 28.228 137.212 28.424V28.536C137.212 28.8907 137.282 29.1333 137.422 29.264C137.562 29.3947 137.819 29.46 138.192 29.46H138.85C139.214 29.46 139.466 29.39 139.606 29.25C139.755 29.11 139.83 28.8487 139.83 28.466V28.298C139.83 28.0273 139.718 27.822 139.494 27.682C139.279 27.5327 139.009 27.444 138.682 27.416C138.355 27.388 138.001 27.3367 137.618 27.262C137.245 27.178 136.895 27.0753 136.568 26.954C136.241 26.8233 135.966 26.576 135.742 26.212C135.527 25.8387 135.42 25.3627 135.42 24.784V24.294C135.42 23.566 135.625 23.0013 136.036 22.6C136.447 22.1987 137.016 21.998 137.744 21.998H139.144C139.881 21.998 140.455 22.1987 140.866 22.6C141.277 23.0013 141.482 23.566 141.482 24.294V24.56C141.482 24.756 141.384 24.854 141.188 24.854H139.998C139.802 24.854 139.704 24.756 139.704 24.56V24.476C139.704 24.112 139.634 23.8647 139.494 23.734C139.354 23.6033 139.097 23.538 138.724 23.538H138.178C137.795 23.538 137.534 23.6127 137.394 23.762C137.263 23.902 137.198 24.182 137.198 24.602V24.868C137.198 25.3067 137.581 25.5587 138.346 25.624C139.139 25.6893 139.844 25.848 140.46 26.1C140.787 26.24 141.057 26.492 141.272 26.856C141.496 27.2107 141.608 27.668 141.608 28.228V28.704C141.608 29.432 141.403 29.9967 140.992 30.398C140.581 30.7993 140.012 31 139.284 31H137.758C137.03 31 136.461 30.7993 136.05 30.398C135.639 29.9967 135.434 29.432 135.434 28.704Z" fill="white"/>
</svg>
