<svg width="3840" height="1008" viewBox="0 0 3840 1008" fill="none" xmlns="http://www.w3.org/2000/svg" xmlns:xlink="http://www.w3.org/1999/xlink">
<path d="M3840,1008L3840,0L2880,0L2423.98,0C2408.58,0 2393.78,5.921 2382.62,16.539L2312.46,83.32C2301.3,93.937 2286.5,99.858 2271.1,99.858L1568.906,99.858C1553.506,99.858 1538.696,93.937 1527.542,83.32L1457.376,16.539C1446.222,5.921 1431.412,0 1416.012,0L960,0L0,0L0,1008L960,1008L1416.012,1008C1431.412,1008 1446.222,1002.078 1457.376,991.462L1527.542,924.68C1538.696,914.064 1553.506,908.142 1568.906,908.142L2271.1,908.142C2286.5,908.142 2301.3,914.064 2312.46,924.68L2382.62,991.462C2393.78,1002.078 2408.58,1008 2423.98,1008L2880,1008L3840,1008Z" fill="#000000"/>
</svg>
