<svg width="92" height="92" viewBox="0 0 92 92" fill="none" xmlns="http://www.w3.org/2000/svg" xmlns:xlink="http://www.w3.org/1999/xlink">
<path d="M36,5.773C42.188,2.201 49.812,2.201 56,5.773L75.837,17.227C82.025,20.799 85.837,27.402 85.837,34.547L85.837,57.453C85.837,64.598 82.025,71.201 75.837,74.774L56,86.226C49.812,89.799 42.188,89.799 36,86.227L16.163,74.774C9.975,71.201 6.163,64.598 6.163,57.453L6.163,34.547C6.163,27.402 9.975,20.799 16.163,17.227L36,5.773Z" fill="#1A1D26"/>
<path d="M41.205,64.051L41.205,49.504L35.636,49.504C35.493,49.504 35.351,49.476 35.219,49.421C35.087,49.366 34.967,49.286 34.865,49.185C34.764,49.083 34.684,48.963 34.629,48.831C34.574,48.699 34.546,48.557 34.546,48.414L34.546,42.66C34.546,42.371 34.661,42.093 34.865,41.889C35.07,41.684 35.347,41.569 35.636,41.569L41.181,41.569L41.181,36.001C41.049,34.68 41.207,33.347 41.646,32.093C42.084,30.84 42.791,29.698 43.717,28.748C44.643,27.797 45.767,27.061 47.008,26.59C48.249,26.12 49.579,25.927 50.902,26.025L55.543,26.025C55.834,26.025 56.114,26.139 56.322,26.343C56.53,26.547 56.65,26.824 56.656,27.115L56.656,31.987C56.65,32.279 56.53,32.556 56.322,32.76C56.114,32.964 55.834,33.078 55.543,33.078L52.642,33.078C49.51,33.078 48.907,34.563 48.907,36.744L48.907,41.569L56.355,41.569C56.509,41.565 56.663,41.594 56.805,41.654C56.948,41.715 57.075,41.806 57.179,41.921C57.282,42.035 57.36,42.171 57.406,42.319C57.452,42.467 57.465,42.622 57.445,42.776L56.772,48.553C56.738,48.817 56.608,49.06 56.408,49.235C56.207,49.411 55.948,49.506 55.682,49.504L48.954,49.504L48.954,64.051C48.957,64.308 48.908,64.563 48.812,64.8C48.715,65.038 48.571,65.254 48.39,65.436C48.208,65.618 47.992,65.761 47.754,65.858C47.516,65.955 47.261,66.003 47.005,66L43.13,66C42.875,66 42.623,65.949 42.388,65.851C42.153,65.753 41.939,65.609 41.76,65.428C41.581,65.246 41.44,65.031 41.344,64.795C41.249,64.559 41.201,64.306 41.205,64.051Z" fill="#1778F2"/>
</svg>
