<svg width="92" height="92" viewBox="0 0 92 92" fill="none" xmlns="http://www.w3.org/2000/svg" xmlns:xlink="http://www.w3.org/1999/xlink">
<path d="M36,5.773C42.188,2.201 49.812,2.201 56,5.773L75.837,17.227C82.025,20.799 85.837,27.402 85.837,34.547L85.837,57.453C85.837,64.598 82.025,71.201 75.837,74.774L56,86.226C49.812,89.799 42.188,89.799 36,86.227L16.163,74.774C9.975,71.201 6.163,64.598 6.163,57.453L6.163,34.547C6.163,27.402 9.975,20.799 16.163,17.227L36,5.773Z" fill="#1A1D26"/>
<g transform="translate(23, 23)">
<path fill="#4caf50" d="M45,16.2l-5,2.75l-5,4.75L35,40h7c1.657,0,3-1.343,3-3V16.2z"/>
<path fill="#1e88e5" d="M3,16.2l3.614,1.71L13,23.7V40H6c-1.657,0-3-1.343-3-3V16.2z"/>
<polygon fill="#e53935" points="35,11.2 24,19.45 13,11.2 12,17 13,23.7 24,31.95 35,23.7 36,17"/>
<path fill="#c62828" d="M3,12.298V16.2l10,7.5V11.2L9.876,8.859C9.132,8.301,8.228,8,7.298,8h0C4.924,8,3,9.924,3,12.298z"/>
<path fill="#fbc02d" d="M45,12.298V16.2l-10,7.5V11.2l3.124-2.341C38.868,8.301,39.772,8,40.702,8h0 C43.076,8,45,9.924,45,12.298z"/>
</g>
<defs>
<linearGradient id="pf_0_2_429" x1="49.649" y1="42.627" x2="42.31" y2="49.903" gradientUnits="userSpaceOnUse">
<stop stop-color="#F64F50"/>
<stop offset="1" stop-color="#FF6D42"/>
</linearGradient>
<linearGradient id="pf_0_2_430" x1="56.861" y1="35.158" x2="35.375" y2="56.961" gradientUnits="userSpaceOnUse">
<stop stop-color="#E0437C"/>
<stop offset="1" stop-color="#FFA14B"/>
</linearGradient>
<linearGradient id="pf_0_2_431" x1="65.5" y1="25.721" x2="26.5" y2="65.5" gradientUnits="userSpaceOnUse">
<stop stop-color="#791CC9"/>
<stop offset="0.249" stop-color="#C938A8"/>
<stop offset="0.547" stop-color="#FE5340"/>
<stop offset="0.953" stop-color="#FFD854"/>
</linearGradient>
</defs>
</svg>
