<svg width="34" height="34" viewBox="0 0 34 34" fill="none" xmlns="http://www.w3.org/2000/svg" xmlns:xlink="http://www.w3.org/1999/xlink">
<line x1="16.03" y1="16.279" x2="16.03" y2="23.794" stroke="#38CF3A" stroke-width="1" stroke-miterlimit="3.999327" stroke-linecap="round" stroke-linejoin="round"/>
<path d="M16.287,9.613C15.917,10.024 15.95,10.656 16.361,11.025C16.771,11.395 17.404,11.362 17.773,10.951L16.287,9.613ZM17.789,10.934C18.158,10.523 18.125,9.891 17.715,9.522C17.304,9.152 16.672,9.185 16.302,9.596L17.789,10.934ZM17.773,10.951L17.789,10.934L16.302,9.596L16.287,9.613L17.773,10.951Z" fill="#38CF3A"/>
<path d="M17.03,33.061C25.883,33.061 33.061,25.883 33.061,17.03L31.061,17.03C31.061,24.779 24.779,31.061 17.03,31.061L17.03,33.061ZM33.061,17.03C33.061,8.177 25.883,1 17.03,1L17.03,3C24.779,3 31.061,9.282 31.061,17.03L33.061,17.03ZM17.03,1C8.177,1 1,8.177 1,17.03L3,17.03C3,9.282 9.282,3 17.03,3L17.03,1ZM1,17.03C1,25.883 8.177,33.061 17.03,33.061L17.03,31.061C9.282,31.061 3,24.779 3,17.03L1,17.03Z" fill="#38CF3A"/>
</svg>
