<svg width="32" height="34" viewBox="0 0 32 34" fill="none" xmlns="http://www.w3.org/2000/svg" xmlns:xlink="http://www.w3.org/1999/xlink">
<line x1="14.03" y1="16.279" x2="14.03" y2="23.794" stroke="#38CF3A" stroke-width="1" stroke-miterlimit="3.999327" stroke-linecap="round" stroke-linejoin="round"/>
<path d="M14.287,9.613C13.917,10.024 13.95,10.656 14.361,11.025C14.771,11.395 15.404,11.362 15.773,10.951L14.287,9.613ZM15.789,10.934C16.158,10.523 16.125,9.891 15.715,9.522C15.304,9.152 14.672,9.185 14.302,9.596L15.789,10.934ZM15.773,10.951L15.789,10.934L14.302,9.596L14.287,9.613L15.773,10.951Z" fill="#38CF3A"/>
<path d="M15.03,33.061C23.883,33.061 31.061,25.883 31.061,17.03L29.061,17.03C29.061,24.779 22.779,31.061 15.03,31.061L15.03,33.061ZM31.061,17.03C31.061,8.177 23.883,1 15.03,1L15.03,3C22.779,3 29.061,9.282 29.061,17.03L31.061,17.03ZM15.03,1C6.177,1 -1,8.177 -1,17.03L1,17.03C1,9.282 7.282,3 15.03,3L15.03,1ZM-1,17.03C-1,25.883 6.177,33.061 15.03,33.061L15.03,31.061C7.282,31.061 1,24.779 1,17.03L-1,17.03Z" fill="#38CF3A"/>
</svg>
