<svg width="92" height="92" viewBox="0 0 92 92" fill="none" xmlns="http://www.w3.org/2000/svg" xmlns:xlink="http://www.w3.org/1999/xlink">
<path d="M36,5.773C42.188,2.201 49.812,2.201 56,5.773L75.837,17.227C82.025,20.799 85.837,27.402 85.837,34.547L85.837,57.453C85.837,64.598 82.025,71.201 75.837,74.774L56,86.226C49.812,89.799 42.188,89.799 36,86.227L16.163,74.774C9.975,71.201 6.163,64.598 6.163,57.453L6.163,34.547C6.163,27.402 9.975,20.799 16.163,17.227L36,5.773Z" fill="#1A1D26"/>
<path d="M49.647,46.468C49.614,47.168 49.384,47.844 48.984,48.418C48.581,49.012 48.001,49.462 47.326,49.705C46.658,49.977 45.923,50.039 45.22,49.881C44.513,49.73 43.867,49.37 43.368,48.847C42.872,48.302 42.547,47.624 42.432,46.897C42.301,46.192 42.389,45.464 42.685,44.811C42.973,44.155 43.448,43.599 44.05,43.212C44.665,42.831 45.374,42.628 46.098,42.627C47.051,42.679 47.95,43.09 48.613,43.777C48.956,44.134 49.225,44.556 49.402,45.018C49.58,45.48 49.663,45.973 49.647,46.468Z" fill="url(#pf_0_1_141)"/>
<path d="M56.53,38.005C56.302,37.443 55.964,36.932 55.535,36.503C55.107,36.075 54.596,35.736 54.034,35.509C53.468,35.288 52.867,35.169 52.259,35.158L39.935,35.158C38.717,35.163 37.549,35.65 36.687,36.512C35.825,37.373 35.339,38.541 35.333,39.76L35.333,52.318C35.334,52.924 35.455,53.524 35.69,54.083C35.924,54.642 36.267,55.149 36.698,55.575C37.56,56.429 38.722,56.912 39.935,56.92L52.259,56.92C53.473,56.912 54.635,56.429 55.496,55.575C55.928,55.149 56.271,54.642 56.505,54.083C56.739,53.524 56.861,52.924 56.861,52.318L56.861,39.779C56.857,39.173 56.745,38.572 56.53,38.005ZM51.655,48.886C51.361,49.616 50.924,50.279 50.368,50.836C49.807,51.401 49.145,51.857 48.418,52.182C47.683,52.49 46.895,52.656 46.097,52.669C45.184,52.687 44.278,52.501 43.445,52.126C42.612,51.751 41.873,51.195 41.281,50.499C40.69,49.802 40.26,48.983 40.024,48.101C39.788,47.218 39.751,46.294 39.916,45.396C40.156,44.2 40.731,43.098 41.573,42.217C42.433,41.355 43.527,40.764 44.72,40.518C45.912,40.272 47.151,40.381 48.281,40.832C49.417,41.291 50.383,42.087 51.05,43.114C51.725,44.104 52.091,45.271 52.103,46.468C52.132,47.297 51.979,48.122 51.655,48.886ZM53.8,39.253C53.821,39.41 53.808,39.57 53.762,39.721C53.716,39.873 53.639,40.013 53.535,40.132C53.43,40.251 53.302,40.347 53.157,40.412C53.013,40.478 52.857,40.511 52.698,40.511C52.54,40.511 52.383,40.478 52.239,40.412C52.095,40.347 51.966,40.251 51.862,40.132C51.758,40.013 51.68,39.873 51.634,39.721C51.588,39.57 51.576,39.41 51.596,39.253C51.576,39.096 51.588,38.936 51.634,38.785C51.68,38.633 51.758,38.493 51.862,38.374C51.966,38.255 52.095,38.159 52.239,38.094C52.383,38.028 52.54,37.995 52.698,37.995C52.857,37.995 53.013,38.028 53.157,38.094C53.302,38.159 53.43,38.255 53.535,38.374C53.639,38.493 53.716,38.633 53.762,38.785C53.808,38.936 53.821,39.096 53.8,39.253Z" fill="url(#pf_0_1_142)"/>
<path d="M55.75,26.5L36.25,26.5C33.664,26.5 31.184,27.527 29.356,29.356C27.527,31.184 26.5,33.664 26.5,36.25L26.5,55.75C26.5,58.336 27.527,60.816 29.356,62.644C31.184,64.473 33.664,65.5 36.25,65.5L55.75,65.5C58.336,65.5 60.816,64.473 62.644,62.644C64.473,60.816 65.5,58.336 65.5,55.75L65.5,36.25C65.5,33.664 64.473,31.184 62.644,29.356C60.816,27.527 58.336,26.5 55.75,26.5ZM59.884,52.123C59.902,53.146 59.71,54.161 59.319,55.107C58.527,57.001 57.021,58.508 55.126,59.299C54.181,59.69 53.165,59.883 52.142,59.865L40.15,59.865C39.127,59.881 38.112,59.689 37.167,59.299C36.229,58.905 35.376,58.336 34.651,57.622C33.933,56.901 33.364,56.046 32.974,55.107C32.563,54.166 32.35,53.15 32.35,52.123L32.35,40.033C32.333,39.01 32.526,37.995 32.915,37.05C33.689,35.147 35.181,33.627 37.069,32.818C38.05,32.436 39.098,32.257 40.15,32.291L52.24,32.291C53.254,32.283 54.259,32.476 55.196,32.861C56.134,33.247 56.985,33.815 57.7,34.534C58.414,35.259 58.983,36.112 59.377,37.05C59.767,37.995 59.959,39.01 59.943,40.033L59.884,52.123Z" fill="url(#pf_0_1_143)"/>
<defs>
<linearGradient id="pf_0_1_141" x1="49.649" y1="42.627" x2="42.31" y2="49.903" gradientUnits="userSpaceOnUse">
<stop stop-color="#F64F50"/>
<stop offset="1" stop-color="#FF6D42"/>
</linearGradient>
<linearGradient id="pf_0_1_142" x1="56.861" y1="35.158" x2="35.375" y2="56.961" gradientUnits="userSpaceOnUse">
<stop stop-color="#E0437C"/>
<stop offset="1" stop-color="#FFA14B"/>
</linearGradient>
<linearGradient id="pf_0_1_143" x1="65.5" y1="25.721" x2="26.5" y2="65.5" gradientUnits="userSpaceOnUse">
<stop stop-color="#791CC9"/>
<stop offset="0.249" stop-color="#C938A8"/>
<stop offset="0.547" stop-color="#FE5340"/>
<stop offset="0.953" stop-color="#FFD854"/>
</linearGradient>
</defs>
</svg>
