<svg width="92" height="92" viewBox="0 0 92 92" fill="none" xmlns="http://www.w3.org/2000/svg" xmlns:xlink="http://www.w3.org/1999/xlink">
<path d="M36,5.773C42.188,2.201 49.812,2.201 56,5.773L75.837,17.227C82.025,20.799 85.837,27.402 85.837,34.547L85.837,57.453C85.837,64.598 82.025,71.201 75.837,74.774L56,86.226C49.812,89.799 42.188,89.799 36,86.227L16.163,74.774C9.975,71.201 6.163,64.598 6.163,57.453L6.163,34.547C6.163,27.402 9.975,20.799 16.163,17.227L36,5.773Z" fill="#1A1D26"/>
<path d="M56.606,26.5L35.394,26.5C33.035,26.5 30.773,27.437 29.105,29.105C27.437,30.773 26.5,33.035 26.5,35.394L26.5,56.606C26.5,58.965 27.437,61.227 29.105,62.895C30.773,64.563 33.035,65.5 35.394,65.5L56.606,65.5C58.965,65.5 61.227,64.563 62.895,62.895C64.563,61.227 65.5,58.965 65.5,56.606L65.5,35.394C65.5,33.035 64.563,30.773 62.895,29.105C61.227,27.437 58.965,26.5 56.606,26.5ZM39.685,57.985C39.691,58.093 39.675,58.202 39.638,58.305C39.6,58.407 39.542,58.5 39.467,58.58C39.392,58.659 39.302,58.722 39.202,58.765C39.102,58.808 38.994,58.83 38.885,58.83L35.327,58.83C35.113,58.824 34.909,58.735 34.76,58.581C34.61,58.427 34.527,58.221 34.527,58.007L34.527,43.198C34.524,43.091 34.542,42.985 34.581,42.885C34.62,42.786 34.679,42.695 34.753,42.618C34.828,42.541 34.917,42.48 35.016,42.439C35.114,42.397 35.22,42.376 35.327,42.376L38.885,42.376C38.992,42.376 39.098,42.397 39.196,42.439C39.295,42.48 39.384,42.541 39.459,42.618C39.534,42.695 39.592,42.786 39.631,42.885C39.67,42.985 39.688,43.091 39.685,43.198L39.685,57.985ZM37.039,39.263C36.46,39.258 35.895,39.083 35.415,38.757C34.935,38.432 34.562,37.972 34.344,37.436C34.125,36.899 34.07,36.31 34.186,35.742C34.301,35.174 34.583,34.653 34.994,34.245C35.405,33.836 35.928,33.559 36.497,33.448C37.066,33.336 37.655,33.396 38.19,33.618C38.725,33.841 39.182,34.217 39.503,34.7C39.825,35.182 39.997,35.748 39.997,36.328C39.997,36.715 39.92,37.099 39.771,37.456C39.622,37.814 39.404,38.138 39.129,38.411C38.854,38.684 38.528,38.9 38.169,39.046C37.811,39.192 37.427,39.266 37.039,39.263ZM58.674,57.962C58.674,58.165 58.595,58.36 58.454,58.505C58.313,58.65 58.12,58.735 57.918,58.741L54.16,58.741C53.958,58.735 53.765,58.65 53.624,58.505C53.483,58.36 53.404,58.165 53.404,57.962L53.404,51.114C53.404,50.091 53.716,46.667 50.692,46.667C48.335,46.667 47.868,49.068 47.779,50.136L47.779,58.118C47.779,58.321 47.7,58.515 47.559,58.661C47.418,58.806 47.225,58.89 47.023,58.896L43.376,58.896C43.274,58.896 43.173,58.876 43.078,58.837C42.984,58.798 42.898,58.741 42.826,58.668C42.754,58.596 42.696,58.51 42.657,58.416C42.618,58.321 42.598,58.22 42.598,58.118L42.598,43.132C42.604,42.929 42.688,42.737 42.834,42.596C42.979,42.455 43.174,42.376 43.376,42.376L47.023,42.376C47.225,42.376 47.42,42.455 47.565,42.596C47.711,42.737 47.795,42.929 47.801,43.132L47.801,44.421C48.333,43.642 49.068,43.024 49.926,42.632C50.784,42.24 51.733,42.09 52.67,42.198C58.741,42.198 58.718,47.868 58.718,51.092L58.674,57.962Z" fill="#2565BD"/>
</svg>
