<svg width="92" height="92" viewBox="0 0 92 92" fill="none" xmlns="http://www.w3.org/2000/svg" xmlns:xlink="http://www.w3.org/1999/xlink">
<path d="M36,5.773C42.188,2.201 49.812,2.201 56,5.773L75.837,17.227C82.025,20.799 85.837,27.402 85.837,34.547L85.837,57.453C85.837,64.598 82.025,71.201 75.837,74.774L56,86.226C49.812,89.799 42.188,89.799 36,86.227L16.163,74.774C9.975,71.201 6.163,64.598 6.163,57.453L6.163,34.547C6.163,27.402 9.975,20.799 16.163,17.227L36,5.773Z" fill="#1A1D26"/>
<path d="M45.448,45.665L29.557,63.084C29.174,62.428 28.98,61.677 28.996,60.917L28.996,45.955C28.996,41.059 28.996,36.162 28.996,31.284C28.952,30.3 29.245,29.33 29.828,28.536L45.448,45.665Z" fill="#4285F5"/>
<path d="M52.686,37.73L45.448,45.665L29.828,28.536C30.455,27.747 31.353,27.219 32.347,27.055C33.341,26.89 34.361,27.101 35.209,27.646C40.764,30.955 46.396,34.13 52.009,37.323L52.686,37.73Z" fill="#00AE45"/>
<path d="M60.699,49.498C58.667,50.697 56.615,51.859 54.583,53.039L53.015,53.949L45.448,45.665L52.686,37.73L60.699,42.414C61.386,42.717 61.97,43.213 62.38,43.841C62.79,44.47 63.008,45.205 63.008,45.956C63.008,46.706 62.79,47.441 62.38,48.07C61.97,48.699 61.386,49.195 60.699,49.498Z" fill="#FFBB00"/>
<path d="M53.015,53.949L35.073,64.342C34.275,64.879 33.305,65.099 32.354,64.959C31.402,64.819 30.536,64.331 29.925,63.588C29.792,63.428 29.669,63.26 29.557,63.084L45.448,45.665L53.015,53.949Z" fill="#EB4132"/>
</svg>
