<svg width="232" height="60" viewBox="0 0 232 60" fill="none" xmlns="http://www.w3.org/2000/svg" xmlns:xlink="http://www.w3.org/1999/xlink">
<path d="M228,30L229.694,31.064L230.37,29.987L229.682,28.917L228,30ZM2,30L0.302,28.943L-0.355,30L0.302,31.057L2,30ZM208.286,3.083L226.318,31.083L229.682,28.917L211.65,0.917L208.286,3.083ZM226.306,28.936L209.476,55.718L212.864,57.847L229.694,31.064L226.306,28.936ZM21.118,56.943L3.698,28.943L0.302,31.057L17.722,59.057L21.118,56.943ZM3.698,31.057L21.118,3.057L17.722,0.943L0.302,28.943L3.698,31.057Z" fill="#0B0E13"/>
</svg>
