<svg width="382" height="96" viewBox="0 0 382 96" fill="none" xmlns="http://www.w3.org/2000/svg" xmlns:xlink="http://www.w3.org/1999/xlink">
<path d="M378,48L379.688,49.074L380.38,47.987L379.676,46.907L378,48ZM2,48L0.308,46.934L-0.364,48L0.308,49.066L2,48ZM346.324,3.093L376.324,49.093L379.676,46.907L349.676,0.907L346.324,3.093ZM376.312,46.926L348.312,90.926L351.688,93.074L379.688,49.074L376.312,46.926ZM32.675,92.934L3.692,46.934L0.308,49.066L29.29,95.066L32.675,92.934ZM3.692,49.066L32.675,3.066L29.29,0.934L0.308,46.934L3.692,49.066Z" fill="#38CF3A"/>
</svg>
