<svg width="92" height="92" viewBox="0 0 92 92" fill="none" xmlns="http://www.w3.org/2000/svg" xmlns:xlink="http://www.w3.org/1999/xlink">
<path d="M36,5.773C42.188,2.201 49.812,2.201 56,5.773L75.837,17.227C82.025,20.799 85.837,27.402 85.837,34.547L85.837,57.453C85.837,64.598 82.025,71.201 75.837,74.774L56,86.226C49.812,89.799 42.188,89.799 36,86.227L16.163,74.774C9.975,71.201 6.163,64.598 6.163,57.453L6.163,34.547C6.163,27.402 9.975,20.799 16.163,17.227L36,5.773Z" fill="#1A1D26"/>
<path d="M57.502,28L63.636,28L50.236,43.249L66,64L53.657,64L43.989,51.415L32.927,64L26.79,64L41.123,47.689L26,28L38.657,28L47.395,39.503L57.502,28ZM55.35,60.345L58.748,60.345L36.81,31.463L33.163,31.463L55.35,60.345Z" fill="#00A1F6"/>
</svg>
