<svg width="40" height="46" viewBox="0 0 40 46" fill="none" xmlns="http://www.w3.org/2000/svg" xmlns:xlink="http://www.w3.org/1999/xlink">
<path d="M4.423,2.227L3.4,3.952L3.4,3.952L4.423,2.227ZM4.423,42.149L5.446,43.875L5.446,43.875L4.423,42.149ZM35.778,23.569L36.801,25.294L36.801,25.294L35.778,23.569ZM35.778,20.807L36.801,19.082L36.801,19.082L35.778,20.807ZM5.446,0.501C3.039,-0.925 -0.006,0.809 -0.006,3.607L4.006,3.607C4.006,3.918 3.668,4.111 3.4,3.952L5.446,0.501ZM-0.006,3.607L-0.006,40.769L4.006,40.769L4.006,3.607L-0.006,3.607ZM-0.006,40.769C-0.006,43.566 3.039,45.301 5.446,43.875L3.4,40.423C3.668,40.265 4.006,40.458 4.006,40.769L-0.006,40.769ZM5.446,43.875L36.801,25.294L34.755,21.843L3.4,40.424L5.446,43.875ZM36.801,25.294C39.16,23.896 39.16,20.48 36.801,19.082L34.755,22.533C34.493,22.378 34.493,21.998 34.755,21.843L36.801,25.294ZM36.801,19.082L5.446,0.501L3.4,3.952L34.755,22.533L36.801,19.082Z" fill="#38CF3A"/>
</svg>
